<?xml version="1.0" encoding="UTF-8" standalone="no"?>
<svg width="60px" height="60px" viewBox="0 0 60 60" version="1.1" xmlns="http://www.w3.org/2000/svg" xmlns:xlink="http://www.w3.org/1999/xlink" xmlns:sketch="http://www.bohemiancoding.com/sketch/ns">
    <!-- Generator: Sketch 3.4.4 (17249) - http://www.bohemiancoding.com/sketch -->
    <title>Classicswatch</title>
    <desc>Created with Sketch.</desc>
    <defs>
        <path id="path-1" d="M0,0.527 L898.02,0.527 L898.02,2099 L0,2099 L0,0.527 Z"></path>
        <path id="path-3" d="M0,0.527 L898.02,0.527 L898.02,2099 L0,2099 L0,0.527 Z"></path>
        <path id="path-5" d="M0,0.527 L898.02,0.527 L898.02,2099 L0,2099 L0,0.527 Z"></path>
        <path id="path-7" d="M0,0.527 L898.02,0.527 L898.02,2099 L0,2099 L0,0.527 Z"></path>
        <path id="path-9" d="M0,0.527 L898.02,0.527 L898.02,2099 L0,2099 L0,0.527 Z"></path>
        <path id="path-11" d="M0,0.527 L898.02,0.527 L898.02,2099 L0,2099 L0,0.527 Z"></path>
        <path id="path-13" d="M0,0.527 L898.02,0.527 L898.02,2099 L0,2099 L0,0.527 Z"></path>
        <path id="path-15" d="M0,0.527 L898.02,0.527 L898.02,2099 L0,2099 L0,0.527 Z"></path>
        <path id="path-17" d="M0,0.527 L898.02,0.527 L898.02,2099 L0,2099 L0,0.527 Z"></path>
        <path id="path-19" d="M0,0.527 L898.02,0.527 L898.02,2099 L0,2099 L0,0.527 Z"></path>
        <path id="path-21" d="M0,0.527 L898.02,0.527 L898.02,2099 L0,2099 L0,0.527 Z"></path>
        <path id="path-23" d="M0,0.527 L898.02,0.527 L898.02,2099 L0,2099 L0,0.527 Z"></path>
        <path id="path-25" d="M0,0.527 L898.02,0.527 L898.02,2099 L0,2099 L0,0.527 Z"></path>
        <path id="path-27" d="M0,0.527 L898.02,0.527 L898.02,2099 L0,2099 L0,0.527 Z"></path>
        <path id="path-29" d="M0,0.527 L898.02,0.527 L898.02,2099 L0,2099 L0,0.527 Z"></path>
        <path id="path-31" d="M0,0.527 L898.02,0.527 L898.02,2099 L0,2099 L0,0.527 Z"></path>
        <path id="path-33" d="M0,0.527 L898.02,0.527 L898.02,2099 L0,2099 L0,0.527 Z"></path>
    </defs>
    <g id="outlined" stroke="none" stroke-width="1" fill="none" fill-rule="evenodd" sketch:type="MSPage">
        <g id="Page-1" sketch:type="MSLayerGroup" transform="translate(-718.997156, -1799.513239)">
            <g id="Group-66">
                <mask id="mask-2" sketch:name="Clip 62" fill="white">
                    <use xlink:href="#path-1"></use>
                </mask>
                <g id="Clip-62"></g>
            </g>
            <g id="Group-143">
                <mask id="mask-4" sketch:name="Clip 128" fill="white">
                    <use xlink:href="#path-3"></use>
                </mask>
                <g id="Clip-128"></g>
            </g>
            <g id="Group-175">
                <mask id="mask-6" sketch:name="Clip 152" fill="white">
                    <use xlink:href="#path-5"></use>
                </mask>
                <g id="Clip-152"></g>
            </g>
            <g id="Group-214"></g>
            <g id="Group-237"></g>
            <g id="Group-297"></g>
            <g id="Group-319"></g>
            <g id="Group-383">
                <mask id="mask-8" sketch:name="Clip 362" fill="white">
                    <use xlink:href="#path-7"></use>
                </mask>
                <g id="Clip-362"></g>
            </g>
            <g id="Group-398"></g>
            <g id="Group-409"></g>
            <g id="Group-435"></g>
            <g id="Group-456">
                <mask id="mask-10" sketch:name="Clip 455" fill="white">
                    <use xlink:href="#path-9"></use>
                </mask>
                <g id="Clip-455"></g>
            </g>
            <g id="Group-477">
                <mask id="mask-12" sketch:name="Clip 476" fill="white">
                    <use xlink:href="#path-11"></use>
                </mask>
                <g id="Clip-476"></g>
            </g>
            <g id="Group-498">
                <mask id="mask-14" sketch:name="Clip 497" fill="white">
                    <use xlink:href="#path-13"></use>
                </mask>
                <g id="Clip-497"></g>
            </g>
            <g id="Group-519">
                <mask id="mask-16" sketch:name="Clip 518" fill="white">
                    <use xlink:href="#path-15"></use>
                </mask>
                <g id="Clip-518"></g>
            </g>
            <g id="Group-540">
                <mask id="mask-18" sketch:name="Clip 539" fill="white">
                    <use xlink:href="#path-17"></use>
                </mask>
                <g id="Clip-539"></g>
            </g>
            <g id="Group-561">
                <mask id="mask-20" sketch:name="Clip 560" fill="white">
                    <use xlink:href="#path-19"></use>
                </mask>
                <g id="Clip-560"></g>
            </g>
            <g id="Group-582">
                <mask id="mask-22" sketch:name="Clip 581" fill="white">
                    <use xlink:href="#path-21"></use>
                </mask>
                <g id="Clip-581"></g>
            </g>
            <g id="Group-670">
                <mask id="mask-24" sketch:name="Clip 602" fill="white">
                    <use xlink:href="#path-23"></use>
                </mask>
                <g id="Clip-602"></g>
            </g>
            <g id="Group-739">
                <mask id="mask-26" sketch:name="Clip 694" fill="white">
                    <use xlink:href="#path-25"></use>
                </mask>
                <g id="Clip-694"></g>
            </g>
            <g id="Group-830"></g>
            <g id="Group-857"></g>
            <g id="Group-900">
                <mask id="mask-28" sketch:name="Clip 896" fill="white">
                    <use xlink:href="#path-27"></use>
                </mask>
                <g id="Clip-896"></g>
            </g>
            <g id="Group-989">
                <mask id="mask-30" sketch:name="Clip 924" fill="white">
                    <use xlink:href="#path-29"></use>
                </mask>
                <g id="Clip-924"></g>
            </g>
            <g id="Group-1003"></g>
            <g id="Group-1058">
                <mask id="mask-32" sketch:name="Clip 1033" fill="white">
                    <use xlink:href="#path-31"></use>
                </mask>
                <g id="Clip-1033"></g>
            </g>
            <g id="Group-1075">
                <mask id="mask-34" sketch:name="Clip 1065" fill="white">
                    <use xlink:href="#path-33"></use>
                </mask>
                <g id="Clip-1065"></g>
            </g>
            <g id="Group-1338" fill="#535353" sketch:type="MSShapeGroup">
                <path d="M748.6484,1813.4678 C744.3754,1813.4678 740.3564,1815.1328 737.3344,1818.1548 C731.0954,1824.3938 731.0954,1834.5438 737.3344,1840.7818 C740.3564,1843.8038 744.3754,1845.4678 748.6484,1845.4678 C752.9214,1845.4678 756.9404,1843.8038 759.9614,1840.7818 C766.2004,1834.5438 766.2004,1824.3938 759.9614,1818.1548 C756.9404,1815.1328 752.9214,1813.4678 748.6484,1813.4678 M748.6484,1847.4678 C743.8404,1847.4678 739.3204,1845.5958 735.9194,1842.1968 C728.9024,1835.1788 728.9024,1823.7588 735.9194,1816.7398 C739.3204,1813.3408 743.8404,1811.4678 748.6484,1811.4678 C753.4564,1811.4678 757.9764,1813.3408 761.3764,1816.7398 C768.3934,1823.7588 768.3934,1835.1788 761.3764,1842.1968 C757.9764,1845.5958 753.4564,1847.4678 748.6484,1847.4678" id="Fill-1217"></path>
                <path d="M748.6484,1818.4688 C745.7104,1818.4688 742.9484,1819.6128 740.8704,1821.6908 C736.5814,1825.9798 736.5814,1832.9578 740.8704,1837.2468 C742.9484,1839.3238 745.7104,1840.4678 748.6484,1840.4678 C751.5864,1840.4678 754.3484,1839.3238 756.4264,1837.2468 C760.7144,1832.9578 760.7144,1825.9798 756.4264,1821.6908 C754.3484,1819.6128 751.5864,1818.4688 748.6484,1818.4688 M748.6484,1842.4678 C745.1754,1842.4678 741.9114,1841.1158 739.4564,1838.6608 C734.3874,1833.5928 734.3874,1825.3448 739.4564,1820.2768 C741.9114,1817.8218 745.1754,1816.4688 748.6484,1816.4688 C752.1214,1816.4688 755.3854,1817.8218 757.8404,1820.2768 C762.9084,1825.3448 762.9084,1833.5928 757.8404,1838.6608 C755.3854,1841.1158 752.1214,1842.4678 748.6484,1842.4678" id="Fill-1218"></path>
                <path d="M747.5146,1831.4336 L743.3436,1825.6746 L744.9626,1824.5006 L748.2296,1829.0096 L756.5456,1825.7776 L757.2706,1827.6406 L747.5146,1831.4336 Z" id="Fill-1219"></path>
                <path d="M721.7783,1847.8535 L720.3643,1846.4395 L732.0313,1834.7715 L733.4453,1836.1855 L721.7783,1847.8535 Z" id="Fill-1220"></path>
                <path d="M731.6777,1857.7529 L730.2637,1856.3389 L741.9307,1844.6719 L743.3447,1846.0859 L731.6777,1857.7529 Z" id="Fill-1221"></path>
                <path d="M755.0117,1814.6191 L753.5977,1813.2051 L765.2657,1801.5381 L766.6797,1802.9521 L755.0117,1814.6191 Z" id="Fill-1222"></path>
                <path d="M764.9121,1824.5186 L763.4981,1823.1046 L775.1651,1811.4376 L776.5791,1812.8516 L764.9121,1824.5186 Z" id="Fill-1223"></path>
            </g>
        </g>
        <g id="Free_sliced" sketch:type="MSLayerGroup" transform="translate(-720.000000, -1800.000000)"></g>
    </g>
</svg>