<?xml version="1.0" encoding="UTF-8" standalone="no"?>
<svg width="60px" height="60px" viewBox="0 0 60 60" version="1.1" xmlns="http://www.w3.org/2000/svg" xmlns:xlink="http://www.w3.org/1999/xlink" xmlns:sketch="http://www.bohemiancoding.com/sketch/ns">
    <!-- Generator: Sketch 3.4.4 (17249) - http://www.bohemiancoding.com/sketch -->
    <title>Moderncam</title>
    <desc>Created with Sketch.</desc>
    <defs>
        <path id="path-1" d="M0,0.527 L898.02,0.527 L898.02,2099 L0,2099 L0,0.527 Z"></path>
        <path id="path-3" d="M0,0.527 L898.02,0.527 L898.02,2099 L0,2099 L0,0.527 Z"></path>
        <path id="path-5" d="M0,0.527 L898.02,0.527 L898.02,2099 L0,2099 L0,0.527 Z"></path>
        <path id="path-7" d="M0,0.527 L898.02,0.527 L898.02,2099 L0,2099 L0,0.527 Z"></path>
        <path id="path-9" d="M0,0.527 L898.02,0.527 L898.02,2099 L0,2099 L0,0.527 Z"></path>
        <path id="path-11" d="M0,0.527 L898.02,0.527 L898.02,2099 L0,2099 L0,0.527 Z"></path>
        <path id="path-13" d="M0,0.527 L898.02,0.527 L898.02,2099 L0,2099 L0,0.527 Z"></path>
        <path id="path-15" d="M0,0.527 L898.02,0.527 L898.02,2099 L0,2099 L0,0.527 Z"></path>
        <path id="path-17" d="M0,0.527 L898.02,0.527 L898.02,2099 L0,2099 L0,0.527 Z"></path>
        <path id="path-19" d="M0,0.527 L898.02,0.527 L898.02,2099 L0,2099 L0,0.527 Z"></path>
        <path id="path-21" d="M0,0.527 L898.02,0.527 L898.02,2099 L0,2099 L0,0.527 Z"></path>
        <path id="path-23" d="M0,0.527 L898.02,0.527 L898.02,2099 L0,2099 L0,0.527 Z"></path>
        <path id="path-25" d="M0,0.527 L898.02,0.527 L898.02,2099 L0,2099 L0,0.527 Z"></path>
        <path id="path-27" d="M0,0.527 L898.02,0.527 L898.02,2099 L0,2099 L0,0.527 Z"></path>
        <path id="path-29" d="M0,0.527 L898.02,0.527 L898.02,2099 L0,2099 L0,0.527 Z"></path>
        <path id="path-31" d="M0,0.527 L898.02,0.527 L898.02,2099 L0,2099 L0,0.527 Z"></path>
        <path id="path-33" d="M0,0.527 L898.02,0.527 L898.02,2099 L0,2099 L0,0.527 Z"></path>
    </defs>
    <g id="outlined" stroke="none" stroke-width="1" fill="none" fill-rule="evenodd" sketch:type="MSPage">
        <g id="Page-1" sketch:type="MSLayerGroup" transform="translate(1.002844, -1559.513239)">
            <g id="Group-66">
                <mask id="mask-2" sketch:name="Clip 62" fill="white">
                    <use xlink:href="#path-1"></use>
                </mask>
                <g id="Clip-62"></g>
            </g>
            <g id="Group-143">
                <mask id="mask-4" sketch:name="Clip 128" fill="white">
                    <use xlink:href="#path-3"></use>
                </mask>
                <g id="Clip-128"></g>
            </g>
            <g id="Group-175">
                <mask id="mask-6" sketch:name="Clip 152" fill="white">
                    <use xlink:href="#path-5"></use>
                </mask>
                <g id="Clip-152"></g>
            </g>
            <g id="Group-214"></g>
            <g id="Group-237"></g>
            <g id="Group-297"></g>
            <g id="Group-319"></g>
            <g id="Group-383">
                <mask id="mask-8" sketch:name="Clip 362" fill="white">
                    <use xlink:href="#path-7"></use>
                </mask>
                <g id="Clip-362"></g>
            </g>
            <g id="Group-398"></g>
            <g id="Group-409"></g>
            <g id="Group-435"></g>
            <g id="Group-456">
                <mask id="mask-10" sketch:name="Clip 455" fill="white">
                    <use xlink:href="#path-9"></use>
                </mask>
                <g id="Clip-455"></g>
            </g>
            <g id="Group-477">
                <mask id="mask-12" sketch:name="Clip 476" fill="white">
                    <use xlink:href="#path-11"></use>
                </mask>
                <g id="Clip-476"></g>
            </g>
            <g id="Group-498">
                <mask id="mask-14" sketch:name="Clip 497" fill="white">
                    <use xlink:href="#path-13"></use>
                </mask>
                <g id="Clip-497"></g>
            </g>
            <g id="Group-519">
                <mask id="mask-16" sketch:name="Clip 518" fill="white">
                    <use xlink:href="#path-15"></use>
                </mask>
                <g id="Clip-518"></g>
            </g>
            <g id="Group-540">
                <mask id="mask-18" sketch:name="Clip 539" fill="white">
                    <use xlink:href="#path-17"></use>
                </mask>
                <g id="Clip-539"></g>
            </g>
            <g id="Group-561">
                <mask id="mask-20" sketch:name="Clip 560" fill="white">
                    <use xlink:href="#path-19"></use>
                </mask>
                <g id="Clip-560"></g>
            </g>
            <g id="Group-582">
                <mask id="mask-22" sketch:name="Clip 581" fill="white">
                    <use xlink:href="#path-21"></use>
                </mask>
                <g id="Clip-581"></g>
            </g>
            <g id="Group-670">
                <mask id="mask-24" sketch:name="Clip 602" fill="white">
                    <use xlink:href="#path-23"></use>
                </mask>
                <g id="Clip-602"></g>
            </g>
            <g id="Group-739">
                <mask id="mask-26" sketch:name="Clip 694" fill="white">
                    <use xlink:href="#path-25"></use>
                </mask>
                <g id="Clip-694"></g>
            </g>
            <g id="Group-830"></g>
            <g id="Group-857"></g>
            <g id="Group-900">
                <mask id="mask-28" sketch:name="Clip 896" fill="white">
                    <use xlink:href="#path-27"></use>
                </mask>
                <g id="Clip-896"></g>
            </g>
            <g id="Group-989">
                <mask id="mask-30" sketch:name="Clip 924" fill="white">
                    <use xlink:href="#path-29"></use>
                </mask>
                <g id="Clip-924"></g>
            </g>
            <g id="Group-1003"></g>
            <g id="Group-1058">
                <mask id="mask-32" sketch:name="Clip 1033" fill="white">
                    <use xlink:href="#path-31"></use>
                </mask>
                <g id="Clip-1033"></g>
                <path d="M6.9941,1578.5273 C5.3431,1578.5273 4.0001,1579.8723 4.0001,1581.5243 L4.0001,1606.5303 C4.0001,1608.1823 5.3431,1609.5273 6.9941,1609.5273 L51.0061,1609.5273 C52.6571,1609.5273 54.0001,1608.1823 54.0001,1606.5303 L54.0001,1581.5243 C54.0001,1579.8723 52.6571,1578.5273 51.0061,1578.5273 L40.4001,1578.5273 C39.9471,1578.5273 39.5501,1578.2223 39.4331,1577.7853 L37.2321,1569.5273 L20.7681,1569.5273 L18.5661,1577.7853 C18.4501,1578.2223 18.0531,1578.5273 17.6001,1578.5273 L6.9941,1578.5273 Z M51.0061,1611.5273 L6.9941,1611.5273 C4.2401,1611.5273 2.0001,1609.2863 2.0001,1606.5303 L2.0001,1581.5243 C2.0001,1578.7683 4.2401,1576.5273 6.9941,1576.5273 L16.8321,1576.5273 L19.0341,1568.2693 C19.1501,1567.8323 19.5471,1567.5273 20.0001,1567.5273 L38.0001,1567.5273 C38.4531,1567.5273 38.8491,1567.8323 38.9661,1568.2693 L41.1681,1576.5273 L51.0061,1576.5273 C53.7601,1576.5273 56.0001,1578.7683 56.0001,1581.5243 L56.0001,1606.5303 C56.0001,1609.2863 53.7601,1611.5273 51.0061,1611.5273 L51.0061,1611.5273 Z" id="Fill-1045" fill="#535353" sketch:type="MSShapeGroup" mask="url(#mask-32)"></path>
                <path d="M35,1573.527 L23,1573.527 L23,1571.527 L35,1571.527 L35,1573.527 Z" id="Fill-1046" fill="#535353" sketch:type="MSShapeGroup" mask="url(#mask-32)"></path>
                <path d="M35,1576.527 L23,1576.527 L23,1574.527 L35,1574.527 L35,1576.527 Z" id="Fill-1047" fill="#535353" sketch:type="MSShapeGroup" mask="url(#mask-32)"></path>
                <path d="M29,1581.5273 C22.383,1581.5273 17,1586.9103 17,1593.5273 C17,1600.1443 22.383,1605.5273 29,1605.5273 C35.617,1605.5273 41,1600.1443 41,1593.5273 C41,1586.9103 35.617,1581.5273 29,1581.5273 M29,1607.5273 C21.28,1607.5273 15,1601.2473 15,1593.5273 C15,1585.8073 21.28,1579.5273 29,1579.5273 C36.72,1579.5273 43,1585.8073 43,1593.5273 C43,1601.2473 36.72,1607.5273 29,1607.5273" id="Fill-1048" fill="#535353" sketch:type="MSShapeGroup" mask="url(#mask-32)"></path>
                <path d="M29,1585.5273 C24.589,1585.5273 21,1589.1163 21,1593.5273 C21,1597.9383 24.589,1601.5273 29,1601.5273 C33.411,1601.5273 37,1597.9383 37,1593.5273 C37,1589.1163 33.411,1585.5273 29,1585.5273 M29,1603.5273 C23.486,1603.5273 19,1599.0413 19,1593.5273 C19,1588.0133 23.486,1583.5273 29,1583.5273 C34.514,1583.5273 39,1588.0133 39,1593.5273 C39,1599.0413 34.514,1603.5273 29,1603.5273" id="Fill-1049" fill="#535353" sketch:type="MSShapeGroup" mask="url(#mask-32)"></path>
                <path d="M29,1591.5273 C27.897,1591.5273 27,1592.4243 27,1593.5273 C27,1594.6303 27.897,1595.5273 29,1595.5273 C30.103,1595.5273 31,1594.6303 31,1593.5273 C31,1592.4243 30.103,1591.5273 29,1591.5273 M29,1597.5273 C26.794,1597.5273 25,1595.7333 25,1593.5273 C25,1591.3213 26.794,1589.5273 29,1589.5273 C31.206,1589.5273 33,1591.3213 33,1593.5273 C33,1595.7333 31.206,1597.5273 29,1597.5273" id="Fill-1050" fill="#535353" sketch:type="MSShapeGroup" mask="url(#mask-32)"></path>
            </g>
            <g id="Group-1075">
                <mask id="mask-34" sketch:name="Clip 1065" fill="white">
                    <use xlink:href="#path-33"></use>
                </mask>
                <g id="Clip-1065"></g>
            </g>
            <g id="Group-1338"></g>
        </g>
        <g id="Free_sliced" sketch:type="MSLayerGroup" transform="translate(0.000000, -1560.000000)"></g>
    </g>
</svg>