<?xml version="1.0" encoding="UTF-8" standalone="no"?>
<svg width="60px" height="60px" viewBox="0 0 60 60" version="1.1" xmlns="http://www.w3.org/2000/svg" xmlns:xlink="http://www.w3.org/1999/xlink" xmlns:sketch="http://www.bohemiancoding.com/sketch/ns">
    <!-- Generator: Sketch 3.4.4 (17249) - http://www.bohemiancoding.com/sketch -->
    <title>Rugbyball</title>
    <desc>Created with Sketch.</desc>
    <defs>
        <path id="path-1" d="M0,0.527 L898.02,0.527 L898.02,2099 L0,2099 L0,0.527 Z"></path>
        <path id="path-3" d="M0,0.527 L898.02,0.527 L898.02,2099 L0,2099 L0,0.527 Z"></path>
        <path id="path-5" d="M0,0.527 L898.02,0.527 L898.02,2099 L0,2099 L0,0.527 Z"></path>
        <path id="path-7" d="M0,0.527 L898.02,0.527 L898.02,2099 L0,2099 L0,0.527 Z"></path>
        <path id="path-9" d="M0,0.527 L898.02,0.527 L898.02,2099 L0,2099 L0,0.527 Z"></path>
        <path id="path-11" d="M0,0.527 L898.02,0.527 L898.02,2099 L0,2099 L0,0.527 Z"></path>
        <path id="path-13" d="M0,0.527 L898.02,0.527 L898.02,2099 L0,2099 L0,0.527 Z"></path>
        <path id="path-15" d="M0,0.527 L898.02,0.527 L898.02,2099 L0,2099 L0,0.527 Z"></path>
        <path id="path-17" d="M0,0.527 L898.02,0.527 L898.02,2099 L0,2099 L0,0.527 Z"></path>
        <path id="path-19" d="M0,0.527 L898.02,0.527 L898.02,2099 L0,2099 L0,0.527 Z"></path>
        <path id="path-21" d="M0,0.527 L898.02,0.527 L898.02,2099 L0,2099 L0,0.527 Z"></path>
        <path id="path-23" d="M0,0.527 L898.02,0.527 L898.02,2099 L0,2099 L0,0.527 Z"></path>
        <path id="path-25" d="M0,0.527 L898.02,0.527 L898.02,2099 L0,2099 L0,0.527 Z"></path>
        <path id="path-27" d="M0,0.527 L898.02,0.527 L898.02,2099 L0,2099 L0,0.527 Z"></path>
        <path id="path-29" d="M0,0.527 L898.02,0.527 L898.02,2099 L0,2099 L0,0.527 Z"></path>
        <path id="path-31" d="M0,0.527 L898.02,0.527 L898.02,2099 L0,2099 L0,0.527 Z"></path>
        <path id="path-33" d="M0,0.527 L898.02,0.527 L898.02,2099 L0,2099 L0,0.527 Z"></path>
    </defs>
    <g id="outlined" stroke="none" stroke-width="1" fill="none" fill-rule="evenodd" sketch:type="MSPage">
        <g id="Page-1" sketch:type="MSLayerGroup" transform="translate(-238.997156, 0.486761)">
            <g id="Group-53" transform="translate(2.000000, 2.000000)" fill="#535353" sketch:type="MSShapeGroup">
                <path d="M248.2095,49.3184 C251.4975,50.3814 254.9205,50.9214 258.3935,50.9214 L258.3955,50.9214 C267.2095,50.9214 275.4955,47.4884 281.7285,41.2554 C290.5715,32.4124 293.6375,19.6114 289.7905,7.7374 C286.5025,6.6734 283.0795,6.1344 279.6065,6.1344 C270.7925,6.1344 262.5045,9.5674 256.2725,15.7994 C247.4285,24.6434 244.3625,37.4444 248.2095,49.3184 M258.3955,52.9214 L258.3935,52.9214 C254.5355,52.9214 250.7345,52.2934 247.0965,51.0564 C246.8025,50.9564 246.5715,50.7254 246.4715,50.4314 C242.1425,37.7004 245.3555,23.8884 254.8575,14.3854 C261.4685,7.7754 270.2575,4.1344 279.6065,4.1344 C283.4635,4.1344 287.2645,4.7614 290.9035,5.9994 C291.1975,6.0994 291.4285,6.3304 291.5285,6.6244 C295.8575,19.3554 292.6445,33.1674 283.1425,42.6704 C276.5315,49.2804 267.7425,52.9214 258.3955,52.9214" id="Fill-23"></path>
                <path d="M291.9556,21.5615 C291.7566,21.5615 291.5546,21.5015 291.3796,21.3785 C288.5656,19.3895 285.7936,17.0375 283.1426,14.3855 C280.5206,11.7645 278.1906,9.0245 276.2176,6.2435 C275.8976,5.7935 276.0036,5.1685 276.4546,4.8495 C276.9046,4.5305 277.5296,4.6355 277.8486,5.0865 C279.7576,7.7755 282.0146,10.4295 284.5566,12.9715 C287.1276,15.5425 289.8116,17.8215 292.5336,19.7445 C292.9846,20.0635 293.0916,20.6875 292.7736,21.1385 C292.5786,21.4145 292.2696,21.5615 291.9556,21.5615" id="Fill-25"></path>
                <path d="M261.5654,51.9526 C261.2524,51.9526 260.9434,51.8066 260.7494,51.5316 C258.8374,48.8386 256.5814,46.1856 254.0414,43.6466 C251.4724,41.0776 248.7894,38.7986 246.0644,36.8736 C245.6124,36.5546 245.5054,35.9306 245.8244,35.4796 C246.1424,35.0286 246.7664,34.9216 247.2184,35.2396 C250.0354,37.2306 252.8074,39.5836 255.4554,42.2326 C258.0744,44.8506 260.4034,47.5896 262.3794,50.3736 C262.6994,50.8246 262.5934,51.4486 262.1434,51.7676 C261.9674,51.8926 261.7654,51.9526 261.5654,51.9526" id="Fill-27"></path>
                <path d="M255.0566,30.4424 C254.9506,30.4424 254.8416,30.4244 254.7356,30.3884 C254.2126,30.2114 253.9316,29.6434 254.1096,29.1204 C258.8066,15.2854 270.4696,13.6524 270.9636,13.5894 C271.5166,13.5214 272.0126,13.9084 272.0816,14.4564 C272.1516,15.0034 271.7646,15.5034 271.2176,15.5734 C271.1906,15.5774 268.4426,15.9564 265.2096,17.8934 C260.8976,20.4784 257.7996,24.4714 256.0036,29.7634 C255.8626,30.1794 255.4736,30.4424 255.0566,30.4424" id="Fill-29"></path>
                <path d="M267.5864,19.6284 C267.1984,19.6284 266.8294,19.4004 266.6674,19.0224 L264.5454,14.0724 C264.3274,13.5644 264.5634,12.9764 265.0704,12.7594 C265.5774,12.5424 266.1664,12.7774 266.3834,13.2844 L268.5044,18.2334 C268.7224,18.7414 268.4874,19.3294 267.9804,19.5464 C267.8514,19.6024 267.7174,19.6284 267.5864,19.6284" id="Fill-31"></path>
                <path d="M270.9048,18.2256 C270.5168,18.2256 270.1478,17.9976 269.9858,17.6196 L267.8638,12.6696 C267.6468,12.1616 267.8818,11.5736 268.3888,11.3566 C268.8978,11.1376 269.4848,11.3736 269.7018,11.8816 L271.8228,16.8306 C272.0408,17.3386 271.8058,17.9266 271.2988,18.1436 C271.1698,18.1996 271.0358,18.2256 270.9048,18.2256" id="Fill-33"></path>
                <path d="M264.6548,20.9395 C264.3628,20.9395 264.0738,20.8125 263.8768,20.5675 L260.8938,16.8775 C260.5468,16.4485 260.6128,15.8185 261.0428,15.4715 C261.4718,15.1245 262.1018,15.1905 262.4488,15.6205 L265.4318,19.3115 C265.7798,19.7405 265.7128,20.3705 265.2828,20.7175 C265.0978,20.8665 264.8758,20.9395 264.6548,20.9395" id="Fill-35"></path>
                <path d="M261.6479,23.5898 C261.4239,23.5898 261.1989,23.5148 261.0119,23.3608 L257.2929,20.2958 C256.8669,19.9448 256.8059,19.3148 257.1579,18.8878 C257.5089,18.4618 258.1399,18.4018 258.5649,18.7528 L262.2849,21.8188 C262.7099,22.1698 262.7719,22.7998 262.4199,23.2258 C262.2219,23.4658 261.9359,23.5898 261.6479,23.5898" id="Fill-37"></path>
                <path d="M259.5532,27.0986 C259.3912,27.0986 259.2272,27.0596 259.0752,26.9766 L254.6662,24.5736 C254.1812,24.3086 254.0022,23.7016 254.2662,23.2166 C254.5302,22.7306 255.1372,22.5526 255.6232,22.8176 L260.0322,25.2206 C260.5172,25.4846 260.6972,26.0926 260.4322,26.5776 C260.2512,26.9106 259.9072,27.0986 259.5532,27.0986" id="Fill-39"></path>
                <path d="M256.999,30.5273 C256.847,30.5273 256.692,30.4923 256.548,30.4193 L252.778,28.5063 C252.286,28.2573 252.089,27.6553 252.339,27.1633 C252.588,26.6713 253.191,26.4733 253.683,26.7233 L257.452,28.6353 C257.945,28.8853 258.142,29.4873 257.892,29.9793 C257.715,30.3273 257.364,30.5273 256.999,30.5273" id="Fill-41"></path>
            </g>
            <g id="Group-66">
                <mask id="mask-2" sketch:name="Clip 62" fill="white">
                    <use xlink:href="#path-1"></use>
                </mask>
                <g id="Clip-62"></g>
            </g>
            <g id="Group-143">
                <mask id="mask-4" sketch:name="Clip 128" fill="white">
                    <use xlink:href="#path-3"></use>
                </mask>
                <g id="Clip-128"></g>
            </g>
            <g id="Group-175">
                <mask id="mask-6" sketch:name="Clip 152" fill="white">
                    <use xlink:href="#path-5"></use>
                </mask>
                <g id="Clip-152"></g>
            </g>
            <g id="Group-214"></g>
            <g id="Group-237"></g>
            <g id="Group-297"></g>
            <g id="Group-319"></g>
            <g id="Group-383">
                <mask id="mask-8" sketch:name="Clip 362" fill="white">
                    <use xlink:href="#path-7"></use>
                </mask>
                <g id="Clip-362"></g>
            </g>
            <g id="Group-398"></g>
            <g id="Group-409"></g>
            <g id="Group-435"></g>
            <g id="Group-456">
                <mask id="mask-10" sketch:name="Clip 455" fill="white">
                    <use xlink:href="#path-9"></use>
                </mask>
                <g id="Clip-455"></g>
            </g>
            <g id="Group-477">
                <mask id="mask-12" sketch:name="Clip 476" fill="white">
                    <use xlink:href="#path-11"></use>
                </mask>
                <g id="Clip-476"></g>
            </g>
            <g id="Group-498">
                <mask id="mask-14" sketch:name="Clip 497" fill="white">
                    <use xlink:href="#path-13"></use>
                </mask>
                <g id="Clip-497"></g>
            </g>
            <g id="Group-519">
                <mask id="mask-16" sketch:name="Clip 518" fill="white">
                    <use xlink:href="#path-15"></use>
                </mask>
                <g id="Clip-518"></g>
            </g>
            <g id="Group-540">
                <mask id="mask-18" sketch:name="Clip 539" fill="white">
                    <use xlink:href="#path-17"></use>
                </mask>
                <g id="Clip-539"></g>
            </g>
            <g id="Group-561">
                <mask id="mask-20" sketch:name="Clip 560" fill="white">
                    <use xlink:href="#path-19"></use>
                </mask>
                <g id="Clip-560"></g>
            </g>
            <g id="Group-582">
                <mask id="mask-22" sketch:name="Clip 581" fill="white">
                    <use xlink:href="#path-21"></use>
                </mask>
                <g id="Clip-581"></g>
            </g>
            <g id="Group-670">
                <mask id="mask-24" sketch:name="Clip 602" fill="white">
                    <use xlink:href="#path-23"></use>
                </mask>
                <g id="Clip-602"></g>
            </g>
            <g id="Group-739">
                <mask id="mask-26" sketch:name="Clip 694" fill="white">
                    <use xlink:href="#path-25"></use>
                </mask>
                <g id="Clip-694"></g>
            </g>
            <g id="Group-830"></g>
            <g id="Group-857"></g>
            <g id="Group-900">
                <mask id="mask-28" sketch:name="Clip 896" fill="white">
                    <use xlink:href="#path-27"></use>
                </mask>
                <g id="Clip-896"></g>
            </g>
            <g id="Group-989">
                <mask id="mask-30" sketch:name="Clip 924" fill="white">
                    <use xlink:href="#path-29"></use>
                </mask>
                <g id="Clip-924"></g>
            </g>
            <g id="Group-1003"></g>
            <g id="Group-1058">
                <mask id="mask-32" sketch:name="Clip 1033" fill="white">
                    <use xlink:href="#path-31"></use>
                </mask>
                <g id="Clip-1033"></g>
            </g>
            <g id="Group-1075">
                <mask id="mask-34" sketch:name="Clip 1065" fill="white">
                    <use xlink:href="#path-33"></use>
                </mask>
                <g id="Clip-1065"></g>
            </g>
            <g id="Group-1338"></g>
        </g>
        <g id="Free_sliced" sketch:type="MSLayerGroup" transform="translate(-240.000000, 0.000000)"></g>
    </g>
</svg>