<?xml version="1.0" encoding="UTF-8" standalone="no"?>
<svg width="60px" height="60px" viewBox="0 0 60 60" version="1.1" xmlns="http://www.w3.org/2000/svg" xmlns:xlink="http://www.w3.org/1999/xlink" xmlns:sketch="http://www.bohemiancoding.com/sketch/ns">
    <!-- Generator: Sketch 3.4.4 (17249) - http://www.bohemiancoding.com/sketch -->
    <title>Starhome</title>
    <desc>Created with Sketch.</desc>
    <defs>
        <path id="path-1" d="M0,0.527 L898.02,0.527 L898.02,2099 L0,2099 L0,0.527 Z"></path>
        <path id="path-3" d="M0,0.527 L898.02,0.527 L898.02,2099 L0,2099 L0,0.527 Z"></path>
        <path id="path-5" d="M0,0.527 L898.02,0.527 L898.02,2099 L0,2099 L0,0.527 Z"></path>
        <path id="path-7" d="M0,22.527 L32,22.527 L32,0.527 L0,0.527 L0,22.527 Z"></path>
        <path id="path-9" d="M0,16.527 L9,16.527 L9,0.527 L0,0.527 L0,16.527 Z"></path>
        <path id="path-11" d="M0,0.527 L898.02,0.527 L898.02,2099 L0,2099 L0,0.527 Z"></path>
        <path id="path-13" d="M0,0.527 L898.02,0.527 L898.02,2099 L0,2099 L0,0.527 Z"></path>
        <path id="path-15" d="M0,0.527 L898.02,0.527 L898.02,2099 L0,2099 L0,0.527 Z"></path>
        <path id="path-17" d="M0,0.527 L898.02,0.527 L898.02,2099 L0,2099 L0,0.527 Z"></path>
        <path id="path-19" d="M0,0.527 L898.02,0.527 L898.02,2099 L0,2099 L0,0.527 Z"></path>
        <path id="path-21" d="M0,0.527 L898.02,0.527 L898.02,2099 L0,2099 L0,0.527 Z"></path>
        <path id="path-23" d="M0,0.527 L898.02,0.527 L898.02,2099 L0,2099 L0,0.527 Z"></path>
        <path id="path-25" d="M0,0.527 L898.02,0.527 L898.02,2099 L0,2099 L0,0.527 Z"></path>
        <path id="path-27" d="M0,0.527 L898.02,0.527 L898.02,2099 L0,2099 L0,0.527 Z"></path>
        <path id="path-29" d="M0,0.527 L898.02,0.527 L898.02,2099 L0,2099 L0,0.527 Z"></path>
        <path id="path-31" d="M0,0.527 L898.02,0.527 L898.02,2099 L0,2099 L0,0.527 Z"></path>
        <path id="path-33" d="M0,0.527 L898.02,0.527 L898.02,2099 L0,2099 L0,0.527 Z"></path>
        <path id="path-35" d="M0,0.527 L898.02,0.527 L898.02,2099 L0,2099 L0,0.527 Z"></path>
        <path id="path-37" d="M0,0.527 L898.02,0.527 L898.02,2099 L0,2099 L0,0.527 Z"></path>
    </defs>
    <g id="outlined" stroke="none" stroke-width="1" fill="none" fill-rule="evenodd" sketch:type="MSPage">
        <g id="Page-1" sketch:type="MSLayerGroup" transform="translate(-358.997156, -239.513239)">
            <g id="Group-66">
                <mask id="mask-2" sketch:name="Clip 62" fill="white">
                    <use xlink:href="#path-1"></use>
                </mask>
                <g id="Clip-62"></g>
            </g>
            <g id="Group-143">
                <mask id="mask-4" sketch:name="Clip 128" fill="white">
                    <use xlink:href="#path-3"></use>
                </mask>
                <g id="Clip-128"></g>
            </g>
            <g id="Group-175">
                <mask id="mask-6" sketch:name="Clip 152" fill="white">
                    <use xlink:href="#path-5"></use>
                </mask>
                <g id="Clip-152"></g>
            </g>
            <g id="Group-214"></g>
            <g id="Group-237"></g>
            <g id="Group-240" transform="translate(368.000000, 269.000000)">
                <mask id="mask-8" sketch:name="Clip 239" fill="white">
                    <use xlink:href="#path-7"></use>
                </mask>
                <g id="Clip-239"></g>
                <path d="M2,20.527 L30,20.527 L30,2.527 L2,2.527 L2,20.527 Z M32,24.527 L0,24.527 C-1.104,24.527 -2,23.632 -2,22.527 L-2,0.527 C-2,-0.577 -1.104,-1.473 0,-1.473 L32,-1.473 C33.104,-1.473 34,-0.577 34,0.527 L34,22.527 C34,23.632 33.104,24.527 32,24.527 L32,24.527 Z" id="Fill-238" fill="#535353" sketch:type="MSShapeGroup" mask="url(#mask-8)"></path>
            </g>
            <g id="Group-243" transform="translate(380.000000, 275.000000)">
                <mask id="mask-10" sketch:name="Clip 242" fill="white">
                    <use xlink:href="#path-9"></use>
                </mask>
                <g id="Clip-242"></g>
                <path d="M2,14.527 L7,14.527 L7,2.527 L2,2.527 L2,14.527 Z M9,18.527 L0,18.527 C-1.104,18.527 -2,17.632 -2,16.527 L-2,0.527 C-2,-0.577 -1.104,-1.473 0,-1.473 L9,-1.473 C10.104,-1.473 11,-0.577 11,0.527 L11,16.527 C11,17.632 10.104,18.527 9,18.527 L9,18.527 Z" id="Fill-241" fill="#535353" sketch:type="MSShapeGroup" mask="url(#mask-10)"></path>
            </g>
            <g id="Group-248" transform="translate(362.000000, 245.000000)" fill="#535353" sketch:type="MSShapeGroup">
                <path d="M3.3369,24.5273 L40.6629,24.5273 L21.9999,4.9753 L3.3369,24.5273 Z M43.0199,26.5273 L42.9999,26.5273 L0.9999,26.5273 C0.5999,26.5273 0.2379,26.2883 0.0809,25.9213 C-0.0771,25.5523 0.0009,25.1263 0.2769,24.8373 L21.2769,2.8373 C21.6539,2.4413 22.3459,2.4413 22.7229,2.8373 L43.6159,24.7243 C43.8609,24.9063 44.0199,25.1983 44.0199,25.5273 C44.0199,26.0793 43.5719,26.5273 43.0199,26.5273 L43.0199,26.5273 Z" id="Fill-244"></path>
                <path d="M47,9.5273 C47.16,9.5273 47.32,9.5653 47.465,9.6423 L49.199,10.5533 L48.868,8.6233 C48.812,8.2993 48.919,7.9683 49.155,7.7383 L50.557,6.3713 L48.62,6.0903 C48.293,6.0433 48.012,5.8383 47.866,5.5433 L47,3.7873 L46.134,5.5433 C45.988,5.8383 45.707,6.0433 45.38,6.0903 L43.443,6.3713 L44.845,7.7383 C45.081,7.9683 45.188,8.2993 45.132,8.6233 L44.801,10.5533 L46.535,9.6423 C46.68,9.5653 46.84,9.5273 47,9.5273 M50.527,13.3813 C50.368,13.3813 50.208,13.3433 50.062,13.2663 L47,11.6573 L43.938,13.2663 C43.603,13.4443 43.194,13.4143 42.885,13.1903 C42.577,12.9663 42.423,12.5873 42.488,12.2123 L43.072,8.8033 L40.596,6.3893 C40.323,6.1233 40.225,5.7263 40.342,5.3643 C40.46,5.0023 40.773,4.7383 41.15,4.6833 L44.573,4.1863 L46.103,1.0853 C46.44,0.4023 47.56,0.4023 47.897,1.0853 L49.427,4.1863 L52.85,4.6833 C53.227,4.7383 53.54,5.0023 53.658,5.3643 C53.775,5.7263 53.677,6.1233 53.404,6.3893 L50.928,8.8033 L51.479,12.0193 C51.523,12.1313 51.547,12.2543 51.547,12.3813 C51.547,12.9333 51.099,13.3813 50.547,13.3813 L50.527,13.3813" id="Fill-246"></path>
            </g>
            <g id="Group-297"></g>
            <g id="Group-319"></g>
            <g id="Group-383">
                <mask id="mask-12" sketch:name="Clip 362" fill="white">
                    <use xlink:href="#path-11"></use>
                </mask>
                <g id="Clip-362"></g>
            </g>
            <g id="Group-398"></g>
            <g id="Group-409"></g>
            <g id="Group-435"></g>
            <g id="Group-456">
                <mask id="mask-14" sketch:name="Clip 455" fill="white">
                    <use xlink:href="#path-13"></use>
                </mask>
                <g id="Clip-455"></g>
            </g>
            <g id="Group-477">
                <mask id="mask-16" sketch:name="Clip 476" fill="white">
                    <use xlink:href="#path-15"></use>
                </mask>
                <g id="Clip-476"></g>
            </g>
            <g id="Group-498">
                <mask id="mask-18" sketch:name="Clip 497" fill="white">
                    <use xlink:href="#path-17"></use>
                </mask>
                <g id="Clip-497"></g>
            </g>
            <g id="Group-519">
                <mask id="mask-20" sketch:name="Clip 518" fill="white">
                    <use xlink:href="#path-19"></use>
                </mask>
                <g id="Clip-518"></g>
            </g>
            <g id="Group-540">
                <mask id="mask-22" sketch:name="Clip 539" fill="white">
                    <use xlink:href="#path-21"></use>
                </mask>
                <g id="Clip-539"></g>
            </g>
            <g id="Group-561">
                <mask id="mask-24" sketch:name="Clip 560" fill="white">
                    <use xlink:href="#path-23"></use>
                </mask>
                <g id="Clip-560"></g>
            </g>
            <g id="Group-582">
                <mask id="mask-26" sketch:name="Clip 581" fill="white">
                    <use xlink:href="#path-25"></use>
                </mask>
                <g id="Clip-581"></g>
            </g>
            <g id="Group-670">
                <mask id="mask-28" sketch:name="Clip 602" fill="white">
                    <use xlink:href="#path-27"></use>
                </mask>
                <g id="Clip-602"></g>
            </g>
            <g id="Group-739">
                <mask id="mask-30" sketch:name="Clip 694" fill="white">
                    <use xlink:href="#path-29"></use>
                </mask>
                <g id="Clip-694"></g>
            </g>
            <g id="Group-830"></g>
            <g id="Group-857"></g>
            <g id="Group-900">
                <mask id="mask-32" sketch:name="Clip 896" fill="white">
                    <use xlink:href="#path-31"></use>
                </mask>
                <g id="Clip-896"></g>
            </g>
            <g id="Group-989">
                <mask id="mask-34" sketch:name="Clip 924" fill="white">
                    <use xlink:href="#path-33"></use>
                </mask>
                <g id="Clip-924"></g>
            </g>
            <g id="Group-1003"></g>
            <g id="Group-1058">
                <mask id="mask-36" sketch:name="Clip 1033" fill="white">
                    <use xlink:href="#path-35"></use>
                </mask>
                <g id="Clip-1033"></g>
            </g>
            <g id="Group-1075">
                <mask id="mask-38" sketch:name="Clip 1065" fill="white">
                    <use xlink:href="#path-37"></use>
                </mask>
                <g id="Clip-1065"></g>
            </g>
            <g id="Group-1338"></g>
        </g>
        <g id="Free_sliced" sketch:type="MSLayerGroup" transform="translate(-360.000000, -240.000000)"></g>
    </g>
</svg>