<?xml version="1.0" encoding="UTF-8" standalone="no"?>
<svg width="60px" height="60px" viewBox="0 0 60 60" version="1.1" xmlns="http://www.w3.org/2000/svg" xmlns:xlink="http://www.w3.org/1999/xlink" xmlns:sketch="http://www.bohemiancoding.com/sketch/ns">
    <!-- Generator: Sketch 3.4.4 (17249) - http://www.bohemiancoding.com/sketch -->
    <title>Ring</title>
    <desc>Created with Sketch.</desc>
    <defs></defs>
    <g id="colored" stroke="none" stroke-width="1" fill="none" fill-rule="evenodd" sketch:type="MSPage">
        <g id="Ring" sketch:type="MSLayerGroup" transform="translate(12.000000, 3.000000)" stroke="#314E55" stroke-width="2" stroke-linejoin="round">
            <path d="M27.4088277,16.4171492 C34.7866629,19.3612332 40,26.5717965 40,35 C40,46.045695 31.045695,55 20,55 C8.954305,55 0,46.045695 0,35 C0,26.5717965 5.21333714,19.3612332 12.5911723,16.4171492 L15.0092367,20.8502673 C9.17845042,22.9068391 5,28.4654548 5,35 C5,43.2842712 11.7157288,50 20,50 C28.2842712,50 35,43.2842712 35,35 C35,28.4654548 30.8215496,22.9068391 24.9907633,20.8502673 L27.4088277,16.4171492 Z" id="Oval-1081" stroke-linecap="round" fill="#E4AD40" sketch:type="MSShapeGroup"></path>
            <path d="M8,8 L20,0 L32,8 L20,30 L8,8 Z" id="Triangle-44" stroke-linecap="round" fill="#73C9C9" sketch:type="MSShapeGroup"></path>
            <path d="M9,8 L31.0227146,8" id="Line" stroke-linecap="square" fill="#D8D8D8" sketch:type="MSShapeGroup"></path>
            <path d="M20,1 L20,29.0172367" id="Line" stroke-linecap="square" fill="#D8D8D8" sketch:type="MSShapeGroup"></path>
        </g>
        <g id="Free_sliced" sketch:type="MSLayerGroup" transform="translate(-360.000000, -360.000000)"></g>
    </g>
</svg>